######## ######## ######## ##          ######## ########  ######## ######## 
##       ##       ##       ##          ##       ##     ## ##       ##       
##       ##       ##       ##          ##       ##     ## ##       ##       
######   ######   ######   ##          ######   ########  ######   ######   
##       ##       ##       ##          ##       ##   ##   ##       ##       
##       ##       ##       ##          ##       ##    ##  ##       ##       
##       ######## ######## ########    ##       ##     ## ######## ######## 

 Genre:Action | Adventure | Romance 
 Language:English
 IMDb:  http://www.imdb.com/title/tt1509767/
 Source:FLOPPYDISK/iLLUMiNATi Thanks!

 Format : MPEG-4
 Format profile : Base Media
 Codec ID : isom
 File size : 1.24 GiB
 Duration : 1h 43mn
 Overall bit rate : 1 713 Kbps

 Video
 ID : 1
 Format : AVC
 Format/Info : Advanced Video Codec
 Format profile : High@L4.1
 Format settings, CABAC : Yes
 Format settings, ReFrames : 3 frames
 Format settings, GOP : M=1, N=9
 Codec ID : avc1
 Codec ID/Info : Advanced Video Coding
 Duration : 1h 43mn
 Bit rate mode : Variable
 Bit rate : 1 500 Kbps
 Maximum bit rate : 7 039 Kbps
 Width : 672 pixels
 Height : 280 pixels
 Display aspect ratio : 2.40:1
 Frame rate mode : Constant
 Frame rate : 25.000 fps
 Color space : YUV
 Chroma subsampling : 4:2:0
 Bit depth : 8 bits
 Scan type : Progressive
 Bits/(Pixel*Frame) : 0.319
 Stream size : 1.08 GiB (87%)
 Writing library : x264

 Audio
 ID : 2
 Format : AAC
 Format/Info : Advanced Audio Codec
 Format version : Version 4
 Format profile : LC
 Format settings, SBR : No
 Codec ID : 40
 Duration : 1h 43mn
 Bit rate mode : Variable
 Bit rate : 224 Kbps
 Maximum bit rate : 268 Kbps
 Channel(s) : 2 channels
 Channel positions : Front: L R
 Sampling rate : 44.1 KHz
 Stream size : 166 MiB (13%)


 Plot:
 The hot-headed young D'Artagnan along with three former legendary but now down on their luck Musketeers must unite and defeat a beautiful double agent and her villainous employer from seizing the French throne and engulfing Europe in war


 Greets:

 INK,CRYS,IMAGINE,LKRG,FXG,3Li,FLAWL3SS,TA,iLLUSiON,ViSiON,DTRG 
 SAFCuk009,LU,TheFalcon007,MYSTiC,PrisM,Noir,WBZ,LAP,Rx,Kingdom,SAFCuk009+Fabreezy,HDLiTE,TWiZTED,ETRG.ELEKTRI4KA,MAGNAT,CM8
 And to all the other p2p grps past and present




 
 ==================================
  http://thepiratebay.org/user/hiest
 ==================================





Screen Shots:

 
http://shareimage.org/images/stcstpmwh1s63v4z3qag.png
 
http://shareimage.org/images/6scrqpookv19o5n2zo3q.png
 
http://shareimage.org/images/xu4voeipy01eg8m6a6ue.png
 
http://shareimage.org/images/07efkpdo2vsgzz65u1c.png

######## ######## ######## ##          ######## ########  ######## ######## 
##       ##       ##       ##          ##       ##     ## ##       ##       
##       ##       ##       ##          ##       ##     ## ##       ##       
######   ######   ######   ##          ######   ########  ######   ######   
##       ##       ##       ##          ##       ##   ##   ##       ##       
##       ##       ##       ##          ##       ##    ##  ##       ##       
##       ######## ######## ########    ##       ##     ## ######## ######## 